<?xml version="1.0" encoding="UTF-8"?> <svg xmlns="http://www.w3.org/2000/svg" xmlns:xlink="http://www.w3.org/1999/xlink" width="591" height="224" viewBox="0 0 591 224"><defs><clipPath id="clip-Mesa_de_trabajo_1"><rect width="591" height="224"></rect></clipPath></defs><g id="Mesa_de_trabajo_1" data-name="Mesa de trabajo – 1" clip-path="url(#clip-Mesa_de_trabajo_1)"><path id="Trazado_1" data-name="Trazado 1" d="M14.29,123.8A41.831,41.831,0,0,1,0,110.338L16.774,95.424q10.353,11.807,24.854,11.808,13.252,0,13.255-9.735,0-5.382-8.077-9.112a64.459,64.459,0,0,0-8.077-3.314l-4.557-1.864-4.763-1.864Q3.724,70.78,3.728,48.826q0-14.706,11.391-23.611,10.975-8.492,27.959-8.492,14.08,0,24.231,6.422A38.112,38.112,0,0,1,80.15,35.983L61.3,50.067q-1.038-1.239-3.1-3.311a24.2,24.2,0,0,0-4.143-3.523,23.188,23.188,0,0,0-12.22-3.52q-11.185,0-11.182,8.7,0,5.592,8.077,9.321,2.895,1.244,8.077,3.108L51.57,62.5l4.763,1.655q25.676,9.534,25.681,31.9,0,15.534-12.011,25.06-11.391,9.319-29.618,9.321a51.653,51.653,0,0,1-26.1-6.627" transform="translate(9 56.239)" fill="#eaeaea"></path><path id="Trazado_2" data-name="Trazado 2" d="M39.861,32.771V9.989H68.026V32.771h20.3v23.2h-20.3V97.8q0,11.8,3.937,15.739,3.311,3.731,12.011,3.728a43.186,43.186,0,0,0,5.178-.206V141.5a59.271,59.271,0,0,1-12.217,1.038q-37.282,0-37.283-43.911V55.967H28.261v-23.2Z" transform="translate(65.033 42.886)" fill="#eaeaea"></path><path id="Trazado_3" data-name="Trazado 3" d="M110.764,16.724V45.718q-29.2,0-29.2,34.8v47.221H52.981V19.417H80.94V35.157q8.076-18.433,29.824-18.433" transform="translate(114.041 56.239)" fill="#eaeaea"></path><path id="Trazado_4" data-name="Trazado 4" d="M204.264,32.258q7.248,12.223,7.248,32.931v62.546h-28.58V61.875a20.219,20.219,0,0,0-5.387-14.293,17.2,17.2,0,0,0-12.632-5.175q-8.908,0-14.084,5.8-5.181,5.4-5.178,14.5v65.031h-28.58V19.417h27.959V32.049a33.531,33.531,0,0,1,10.976-10.562,36.279,36.279,0,0,1,18.018-4.763q20.916,0,30.238,15.534" transform="translate(241.113 56.239)" fill="#eaeaea"></path><path id="Trazado_5" data-name="Trazado 5" d="M166.568,157.562l8.7-21.958a1.208,1.208,0,0,1,.829.415,1.18,1.18,0,0,0,.829.415,13.7,13.7,0,0,0,2.485,1.035,35.878,35.878,0,0,0,7.042,2.488,65.716,65.716,0,0,0,19.674,3.1q29.828,0,29.827-21.538V116.55A7.642,7.642,0,0,1,234.707,118c-.14.14-.346.343-.62.62a7.721,7.721,0,0,0-.725.826,2.092,2.092,0,0,1-.728.626,74.006,74.006,0,0,1-6.213,4.552,42.434,42.434,0,0,1-22.158,5.8q-23.408,0-37.695-15.942Q152.48,98.744,152.484,73.678t14.91-41.009Q182.1,16.724,205.3,16.724a44.2,44.2,0,0,1,21.747,5.384,38.364,38.364,0,0,1,6.833,4.763c1.793,1.8,3.036,3.1,3.728,3.937V19.414h26.927v94.652q0,53.433-58.2,53.437a80.963,80.963,0,0,1-39.765-9.941M229.114,50.9q-7.664-8.9-20.3-8.906a25.943,25.943,0,0,0-19.882,8.492q-7.664,8.912-7.662,22.99,0,13.878,7.868,22.987,7.659,8.7,19.885,8.7a25.886,25.886,0,0,0,20.088-8.7q7.659-8.487,7.665-22.987,0-14.075-7.665-22.576" transform="translate(311.325 56.239)" fill="#eaeaea"></path><path id="Trazado_6" data-name="Trazado 6" d="M132.079,105.16q-12.845,0-21.123-8.7-8.5-9.1-8.492-22.573,0-14.084,8.283-22.99t21.332-8.906A27.947,27.947,0,0,1,153.413,51.1Q161.9,60.22,161.9,73.887c0,.427-.039.835-.051,1.256a122.7,122.7,0,0,0,28.514-5.1,54.116,54.116,0,0,0-16.658-36.958q-16.572-16.357-41.629-16.36-24.853,0-41.423,16.151Q73.882,49.451,73.881,73.887q0,24.853,16.36,40.594,14.2,13.672,34.8,15.608a127.311,127.311,0,0,0,7.093-24.932l-.051,0" transform="translate(155.48 56.239)" fill="#eaeaea"></path><path id="Trazado_7" data-name="Trazado 7" d="M121.276,41.717a159.9,159.9,0,0,1-23.232-2.153s3.409,7,3.874,19.73a29.807,29.807,0,0,1-.113,3.5c-1,12.393-8.638,27.953-8.638,27.953,16.789,0,30.9-5.6,41.969-16.661,9.765-10.057,15.089-22.522,15.96-37.054-8.405,3.9-19.736,4.853-29.821,4.68" transform="translate(193.716 96.513)" fill="#e1fe03"></path><path id="Trazado_8" data-name="Trazado 8" d="M121.276,41.714a160.165,160.165,0,0,1-23.232-2.15s3.409,7,3.874,19.73a28.5,28.5,0,0,1-.113,3.5c-1,12.393-8.638,27.956-8.638,27.956,16.792,0,30.9-5.6,41.972-16.664C144.9,64.03,150.228,51.566,151.1,37.037c-8.405,3.9-19.736,4.853-29.821,4.677" transform="translate(193.716 96.513)" fill="none"></path><path id="Trazado_10" data-name="Trazado 10" d="M82.8,8.318c-6.938,0-8.978,5.479-8.978,11.949V34.78h-4.6V4.471h4.546V9.541A9.389,9.389,0,0,1,82.8,3.713Z" transform="translate(146.236 19.555)" fill="#eaeaea"></path><path id="Trazado_11" data-name="Trazado 11" d="M90.608,15.488c3.848,0,6.762,1.459,7.985,2.741V14.5c0-4.256-2.854-6.7-7.343-6.7a17.37,17.37,0,0,0-8.918,2.622L80.467,7.038A21.354,21.354,0,0,1,91.658,3.712c8.274,0,11.54,4.608,11.54,11.078V34.782H99.234l-.522-2.565c-1.575,1.807-4.14,3.323-8.22,3.323-6.645,0-11.543-4.2-11.543-10.084,0-5.771,4.838-9.968,11.659-9.968m.641,16.2c4.429,0,7.519-2.622,7.519-6.293,0-3.788-3.03-6.24-7.579-6.24-4.605,0-7.576,2.681-7.576,6.24,0,3.5,2.971,6.293,7.636,6.293" transform="translate(165.528 19.553)" fill="#eaeaea"></path><path id="Trazado_12" data-name="Trazado 12" d="M117.951,15.837V34.78h-4.605V15.662c0-4.838-3.03-7.752-7.17-7.752-4.662,0-7.868,3.439-7.868,8.453V34.78H93.7V4.471h4.549V8.843a10.283,10.283,0,0,1,9.034-5.13c7.051,0,10.666,5.246,10.666,12.124" transform="translate(194.778 19.555)" fill="#eaeaea"></path><path id="Trazado_14" data-name="Trazado 14" d="M138.64,3.713c8.918,0,14.4,6.41,14.4,15.5,0,.173,0,.814-.06,1.4H128.672c.06,6.762,4.605,10.842,10.9,10.842a11.093,11.093,0,0,0,9.44-4.722l3.033,2.216c-1.691,2.854-5.655,6.586-12.533,6.586-9.21,0-15.563-6.469-15.563-15.8,0-9.676,6.645-16.029,14.69-16.029m9.676,13.464c-.292-6.3-4.665-9.5-9.676-9.5a9.8,9.8,0,0,0-9.735,9.5Z" transform="translate(254.75 19.555)" fill="#eaeaea"></path><g id="Grupo_201" data-name="Grupo 201" transform="translate(167.489 12.193)"><path id="Trazado_9" data-name="Trazado 9" d="M53.137,0h4.605V16.73a12.539,12.539,0,0,1,10.726-5.655c8.569,0,14.457,6.645,14.457,15.972,0,9.267-6.18,15.856-14.806,15.856a12.552,12.552,0,0,1-10.553-5.539v4.778H53.137Zm14.69,38.763c5.828,0,10.377-4.605,10.377-11.659,0-6.935-4.313-11.832-10.26-11.832-5.712,0-10.377,4.313-10.377,11.832,0,6.353,3.964,11.659,10.26,11.659" transform="translate(-53.137)" fill="#eaeaea"></path><path id="Trazado_13" data-name="Trazado 13" d="M137.635,42.142h-4.489V37.364A12.406,12.406,0,0,1,122.653,42.9c-8.685,0-14.8-6.586-14.8-15.853,0-9.327,5.828-15.972,14.454-15.972A12.4,12.4,0,0,1,132.97,16.73V0h4.665ZM122.829,15.271c-5.944,0-10.26,4.9-10.26,11.832,0,7.054,4.492,11.659,10.32,11.659,6.353,0,10.257-5.306,10.257-11.659,0-7.519-4.662-11.832-10.317-11.832" transform="translate(55.341)" fill="#eaeaea"></path><path id="Trazado_15" data-name="Trazado 15" d="M168.879,42.142H164.39V37.364A12.406,12.406,0,0,1,153.9,42.9c-8.686,0-14.8-6.586-14.8-15.853,0-9.327,5.828-15.972,14.454-15.972a12.4,12.4,0,0,1,10.666,5.655V0h4.665ZM154.073,15.271c-5.944,0-10.26,4.9-10.26,11.832,0,7.054,4.492,11.659,10.32,11.659,6.353,0,10.257-5.306,10.257-11.659,0-7.519-4.662-11.832-10.317-11.832" transform="translate(117.288)" fill="#eaeaea"></path></g></g></svg> 